<?xml version="1.0" encoding="UTF-8"?>
<!DOCTYPE svg PUBLIC "-//W3C//DTD SVG 1.1//EN" "http://www.w3.org/Graphics/SVG/1.1/DTD/svg11.dtd">
<svg version="1.1" xmlns="http://www.w3.org/2000/svg" xmlns:xlink="http://www.w3.org/1999/xlink" x="0" y="0" width="721" height="1006" viewBox="0, 0, 721, 1006">
  <g id="Layer_1">
    <path d="M74.241,613.31 L64.677,603.748 L20.3,635.15 L27.638,660.256 L74.241,613.31" fill="#5D6060"/>
    <path d="M74.241,613.31 L64.677,603.748 L20.3,635.15 L27.638,660.256 L74.241,613.31 z" fill-opacity="0" stroke="#1A1919" stroke-width="2.823" stroke-linecap="round" stroke-linejoin="round"/>
    <path d="M69.46,606.935 L66.273,601.359 L15.275,632.434 L18.939,643.875 L24.044,634.824 L69.46,606.935" fill="#7A7D7D"/>
    <path d="M69.46,606.935 L66.273,601.359 L15.275,632.434 L18.939,643.875 L24.044,634.824 L69.46,606.935 z" fill-opacity="0" stroke="#1A1919" stroke-width="2.823" stroke-linecap="round" stroke-linejoin="round"/>
    <path d="M79.785,610.728 L84.699,744.525 L34.401,798.965 L33.603,638.808 L79.785,610.728" fill="#656868"/>
    <path d="M79.785,610.728 L84.699,744.525 L34.401,798.965 L33.603,638.808 L79.785,610.728 z" fill-opacity="0" stroke="#1A1919" stroke-width="2.823" stroke-linecap="round" stroke-linejoin="round"/>
    <path d="M38.583,638.723 L20.056,634.824 L6.272,787.027 L33.397,790.328 L38.583,638.723" fill="#5D6060"/>
    <path d="M38.583,638.723 L20.056,634.824 L6.272,787.027 L33.397,790.328 L38.583,638.723 z" fill-opacity="0" stroke="#1A1919" stroke-width="2.823" stroke-linecap="round" stroke-linejoin="round"/>
    <path d="M33.56,636.123 L28.822,787.81 L9.563,784.506 L23.328,634.73 L14.481,634.029 L1.412,792.133 L35.194,799.762 L41.661,636.808 L33.56,636.123" fill="#7A7D7D"/>
    <path d="M33.56,636.123 L28.822,787.81 L9.563,784.506 L23.328,634.73 L14.481,634.029 L1.412,792.133 L35.194,799.762 L41.661,636.808 L33.56,636.123 z" fill-opacity="0" stroke="#1A1919" stroke-width="2.823" stroke-linecap="round" stroke-linejoin="round"/>
    <path d="M77.45,615.012 L71.311,613.959 L32.58,636.562 L40.773,638.808 L77.45,615.012" fill="#7A7D7D"/>
    <path d="M77.45,615.012 L71.311,613.959 L32.58,636.562 L40.773,638.808 L77.45,615.012 z" fill-opacity="0" stroke="#1A1919" stroke-width="3.32"/>
    <path d="M65.456,600.66 C64.748,602.101 55.923,608.14 53.962,602.32 C53.527,601.023 53.103,597.795 51.963,590.389 C48.897,584.973 48.625,580.17 45.167,581.92 C41.734,587.535 42.555,591.885 47.146,595.781 C50.546,598.705 48.718,599.197 51.403,601.732 C53.197,603.445 56.604,605.555 51.442,607.726 C46.345,609.877 39.645,610.139 32.28,608.947 C27.677,608.203 23.047,600.496 19.169,596.301 C11.691,588.211 15.275,582.234 23.079,556.941 C25.379,549.478 30.634,533.881 31.327,531.195 C36.023,512.863 29.506,458.859 44.438,466.086 C54.912,471.151 49.858,510.746 53.464,529.703 C55.464,542.303 60.265,542.836 63.195,550.744 C69.046,565.23 71.21,584.523 65.456,600.66" fill="#F8D2B8"/>
    <path d="M65.456,600.66 C64.748,602.101 55.923,608.14 53.962,602.32 C53.527,601.023 53.103,597.795 51.963,590.389 C48.897,584.973 48.625,580.17 45.167,581.92 C41.734,587.535 42.555,591.885 47.146,595.781 C50.546,598.705 48.718,599.197 51.403,601.732 C53.197,603.445 56.604,605.555 51.442,607.726 C46.345,609.877 39.645,610.139 32.28,608.947 C27.677,608.203 23.047,600.496 19.169,596.301 C11.691,588.211 15.275,582.234 23.079,556.941 C25.379,549.478 30.634,533.881 31.327,531.195 C36.023,512.863 29.506,458.859 44.438,466.086 C54.912,471.151 49.858,510.746 53.464,529.703 C55.464,542.303 60.265,542.836 63.195,550.744 C69.046,565.23 71.21,584.523 65.456,600.66" fill="#F8D2B8"/>
    <path d="M65.456,600.66 C64.748,602.101 55.923,608.14 53.962,602.32 C53.527,601.023 53.103,597.795 51.963,590.389 C48.897,584.973 48.625,580.17 45.167,581.92 C41.734,587.535 42.555,591.885 47.146,595.781 C50.546,598.705 48.718,599.197 51.403,601.732 C53.197,603.445 56.604,605.555 51.442,607.726 C46.345,609.877 39.645,610.139 32.28,608.947 C27.677,608.203 23.047,600.496 19.169,596.301 C11.691,588.211 15.275,582.234 23.079,556.941 C25.379,549.478 30.634,533.881 31.327,531.195 C36.023,512.863 29.506,458.859 44.438,466.086 C54.912,471.151 49.858,510.746 53.464,529.703 C55.464,542.303 60.265,542.836 63.195,550.744 C69.046,565.23 71.21,584.523 65.456,600.66 z M65.456,600.66 C64.748,602.101 55.923,608.14 53.962,602.32 C53.527,601.023 53.103,597.795 51.963,590.389 C48.897,584.973 48.625,580.17 45.167,581.92 C41.734,587.535 42.555,591.885 47.146,595.781 C50.546,598.705 48.718,599.197 51.403,601.732 C53.197,603.445 56.604,605.555 51.442,607.726 C46.345,609.877 39.645,610.139 32.28,608.947 C27.677,608.203 23.047,600.496 19.169,596.301 C11.691,588.211 15.275,582.234 23.079,556.941 C25.379,549.478 30.634,533.881 31.327,531.195 C36.023,512.863 29.506,458.859 44.438,466.086 C54.912,471.151 49.858,510.746 53.464,529.703 C55.464,542.303 60.265,542.836 63.195,550.744 C69.046,565.23 71.21,584.523 65.456,600.66 z" fill-opacity="0" stroke="#1A1919" stroke-width="2.823" stroke-linecap="round" stroke-linejoin="round"/>
    <path d="M53.671,578.184 C55.558,584.676 56.072,594.199 56.08,596.32 C56.118,605.301 57.149,616.476 56.523,628.549 C56.445,630.09 53.231,632.621 51.94,633.394 C46.73,636.488 49.948,632.74 49.66,625.861 C49.236,615.613 50.134,601.635 47.06,586.59 C46.076,581.764 43.924,571.019 48.593,573.01 C51.636,574.308 52.998,575.848 53.671,578.184" fill="#7A7D7D"/>
    <path d="M53.671,578.184 C55.558,584.676 56.072,594.199 56.08,596.32 C56.118,605.301 57.149,616.476 56.523,628.549 C56.445,630.09 53.231,632.621 51.94,633.394 C46.73,636.488 49.948,632.74 49.66,625.861 C49.236,615.613 50.134,601.635 47.06,586.59 C46.076,581.764 43.924,571.019 48.593,573.01 C51.636,574.308 52.998,575.848 53.671,578.184 z" fill-opacity="0" stroke="#1A1919" stroke-width="3.32"/>
    <path d="M49.535,632.434 C50.22,632.058 59.9,625.974 59.9,626.058 C59.853,627.045 59.822,639.215 60.694,638.808 C60.639,638.838 49.329,643.742 49.329,643.742 L49.535,632.434" fill="#7A7D7D"/>
    <path d="M49.535,632.434 C50.22,632.058 59.9,625.974 59.9,626.058 C59.853,627.045 59.822,639.215 60.694,638.808 C60.639,638.838 49.329,643.742 49.329,643.742 L49.535,632.434 z" fill-opacity="0" stroke="#1A1919" stroke-width="2.823" stroke-linecap="round" stroke-linejoin="round"/>
    <path d="M27.25,625.562 C30.346,622.93 33.615,621.705 36.968,619.166 C38.135,611.519 49.454,586.269 49.858,576.803 C50.103,571.043 45.703,571.387 43.637,575.758 C41.077,581.174 38.727,588.045 36.976,594.197 C34.19,603.994 30.164,615.949 27.25,625.562" fill="#7A7D7D"/>
    <path d="M27.25,625.562 C30.346,622.93 33.615,621.705 36.968,619.166 C38.135,611.519 49.454,586.269 49.858,576.803 C50.103,571.043 45.703,571.387 43.637,575.758 C41.077,581.174 38.727,588.045 36.976,594.197 C34.19,603.994 30.164,615.949 27.25,625.562 z" fill-opacity="0" stroke="#1A1919" stroke-width="2.823" stroke-linecap="round" stroke-linejoin="round"/>
    <path d="M105.094,967.207 C111.895,977.291 122.057,974.642 129.259,959.83 C117.98,988.896 106.439,995.76 93.557,998.406 C84.691,1000.223 67.207,994.064 62.075,981.73 C56.476,968.338 64.342,961.816 67.74,955.305 C72.65,945.894 80.699,940.945 87.297,943.244 C92.998,945.213 99.14,958.379 105.094,967.207" fill="#603455"/>
    <path d="M105.094,967.207 C111.895,977.291 122.057,974.642 129.259,959.83 C117.98,988.896 106.439,995.76 93.557,998.406 C84.691,1000.223 67.207,994.064 62.075,981.73 C56.476,968.338 64.342,961.816 67.74,955.305 C72.65,945.894 80.699,940.945 87.297,943.244 C92.998,945.213 99.14,958.379 105.094,967.207 z" fill-opacity="0" stroke="#1A1919" stroke-width="3.32"/>
    <path d="M156.613,920.086 C156.613,926.607 158.784,941.525 153.097,946.699 C147.579,951.719 132.569,955.998 129.504,952.721 C123.399,946.201 128.928,915.232 132.234,908.617 C144.089,884.853 156.613,894.478 156.613,920.086" fill="#603455"/>
    <path d="M156.613,920.086 C156.613,926.607 158.784,941.525 153.097,946.699 C147.579,951.719 132.569,955.998 129.504,952.721 C123.399,946.201 128.928,915.232 132.234,908.617 C144.089,884.853 156.613,894.478 156.613,920.086 z" fill-opacity="0" stroke="#1A1919" stroke-width="3.32"/>
    <path d="M158.115,926.117 C157.353,937.789 140.253,942.387 136.188,947.81 C132.103,953.258 130.483,957.25 127.484,963.943 C124.092,971.537 117.995,981.209 105.845,987.293 C85.881,997.289 46.886,983.652 67.448,955.066 C82.804,930.615 104.245,927.496 115.929,913.551 C120.271,908.379 120.306,899.152 126.061,895.848 C143.432,885.865 159.088,911.42 158.115,926.117" fill="#9F7D6F"/>
    <path d="M158.115,926.117 C157.353,937.789 140.253,942.387 136.188,947.81 C132.103,953.258 130.483,957.25 127.484,963.943 C124.092,971.537 117.995,981.209 105.845,987.293 C85.881,997.289 46.886,983.652 67.448,955.066 C82.804,930.615 104.245,927.496 115.929,913.551 C120.271,908.379 120.306,899.152 126.061,895.848 C143.432,885.865 159.088,911.42 158.115,926.117 z" fill-opacity="0" stroke="#1A1919" stroke-width="3.32"/>
    <path d="M134.907,910.812 C134.095,904.041 118.485,909.93 115.062,911.73 C108.833,914.998 88.29,930.973 88.344,934.148 C88.539,946.1 100.468,933.392 102.386,936.726 C104.654,940.668 97.499,942.934 104.907,949.205 C111.436,954.73 124.873,938.365 126.994,935.658 C132.355,928.81 136.308,922.533 134.907,910.812" fill="#685349"/>
    <path d="M134.907,910.812 C134.095,904.041 118.485,909.93 115.062,911.73 C108.833,914.998 88.29,930.973 88.344,934.148 C88.539,946.1 100.468,933.392 102.386,936.726 C104.654,940.668 97.499,942.934 104.907,949.205 C111.436,954.73 124.873,938.365 126.994,935.658 C132.355,928.81 136.308,922.533 134.907,910.812 z" fill-opacity="0" stroke="#1A1919" stroke-width="3.32"/>
    <path d="M100.533,929.639 C105.141,926.857 113.295,936.326 112.439,939.168 M105.315,923.266 C110.304,922.717 121.15,928.14 118.466,933.144" fill-opacity="0" stroke="#1A1919" stroke-width="2.823" stroke-linecap="round" stroke-linejoin="round"/>
    <path d="M103.156,936.17 C109.296,928.398 114.311,924.959 119.664,919.512 C122.874,916.242 128.5,912.281 131.954,909.504" fill="#5D5896"/>
    <path d="M103.156,936.17 C109.296,928.398 114.311,924.959 119.664,919.512 C122.874,916.242 128.5,912.281 131.954,909.504" fill-opacity="0" stroke="#1A1919" stroke-width="3.32"/>
    <path d="M224.493,967.709 C217.688,977.793 207.525,975.139 200.328,960.332 C211.611,989.402 223.146,996.258 236.028,998.904 C244.899,1000.73 262.376,994.564 267.512,982.228 C273.106,968.84 265.248,962.324 261.847,955.81 C256.94,946.394 248.892,941.447 242.285,943.746 C236.589,945.719 230.446,958.885 224.493,967.709" fill="#603455"/>
    <path d="M224.493,967.709 C217.688,977.793 207.525,975.139 200.328,960.332 C211.611,989.402 223.146,996.258 236.028,998.904 C244.899,1000.73 262.376,994.564 267.512,982.228 C273.106,968.84 265.248,962.324 261.847,955.81 C256.94,946.394 248.892,941.447 242.285,943.746 C236.589,945.719 230.446,958.885 224.493,967.709 z" fill-opacity="0" stroke="#1A1919" stroke-width="3.32"/>
    <path d="M172.978,920.594 C172.978,927.113 170.803,942.029 176.487,947.201 C182.011,952.219 197.018,956.504 200.08,953.224 C206.188,946.699 200.659,915.732 197.348,909.115 C185.493,885.351 172.978,894.976 172.978,920.594" fill="#603455"/>
    <path d="M172.978,920.594 C172.978,927.113 170.803,942.029 176.487,947.201 C182.011,952.219 197.018,956.504 200.08,953.224 C206.188,946.699 200.659,915.732 197.348,909.115 C185.493,885.351 172.978,894.976 172.978,920.594 z" fill-opacity="0" stroke="#1A1919" stroke-width="3.32"/>
    <path d="M171.468,926.617 C172.234,938.289 189.337,942.894 193.396,948.31 C197.484,953.758 199.103,957.748 202.103,964.447 C205.495,972.043 211.592,981.715 223.742,987.791 C243.705,997.793 282.701,984.154 262.135,955.568 C246.782,931.121 225.346,927.992 213.653,914.057 C208.515,907.949 208.09,899.793 204.651,892.953 C194.776,873.305 170.764,915.932 171.468,926.617" fill="#9F7D6F"/>
    <path d="M171.468,926.617 C172.234,938.289 189.337,942.894 193.396,948.31 C197.484,953.758 199.103,957.748 202.103,964.447 C205.495,972.043 211.592,981.715 223.742,987.791 C243.705,997.793 282.701,984.154 262.135,955.568 C246.782,931.121 225.346,927.992 213.653,914.057 C208.515,907.949 208.09,899.793 204.651,892.953 C194.776,873.305 170.764,915.932 171.468,926.617 z" fill-opacity="0" stroke="#1A1919" stroke-width="3.32"/>
    <path d="M194.679,911.308 C195.488,904.541 211.102,910.43 214.529,912.228 C220.75,915.504 241.293,931.471 241.242,934.652 C241.048,946.598 229.119,933.894 227.201,937.228 C224.933,941.172 232.088,943.439 224.68,949.711 C218.155,955.23 204.709,938.867 202.593,936.156 C197.231,929.312 193.278,923.037 194.679,911.308" fill="#685349"/>
    <path d="M194.679,911.308 C195.488,904.541 211.102,910.43 214.529,912.228 C220.75,915.504 241.293,931.471 241.242,934.652 C241.048,946.598 229.119,933.894 227.201,937.228 C224.933,941.172 232.088,943.439 224.68,949.711 C218.155,955.23 204.709,938.867 202.593,936.156 C197.231,929.312 193.278,923.037 194.679,911.308 z" fill-opacity="0" stroke="#1A1919" stroke-width="3.32"/>
    <path d="M227.586,928.898 C222.976,926.117 216.288,936.832 217.147,939.672 M221.058,923.344 C216.063,922.795 208.437,928.642 211.125,933.644" fill-opacity="0" stroke="#1A1919" stroke-width="2.823" stroke-linecap="round" stroke-linejoin="round"/>
    <path d="M226.431,936.678 C220.291,928.898 215.276,925.463 209.919,920.014 C206.717,916.75 201.087,912.783 197.628,910.012" fill="#5D5896"/>
    <path d="M226.431,936.678 C220.291,928.898 215.276,925.463 209.919,920.014 C206.717,916.75 201.087,912.783 197.628,910.012" fill-opacity="0" stroke="#1A1919" stroke-width="3.32"/>
    <path d="M157.901,541.299 C160.457,593.57 160.808,621.303 160.349,634.367 C159.088,670.236 160.363,883.752 162.263,916.434 C161.843,924.867 108.587,927.682 98.199,909.742 C101.055,895.732 94.215,813.973 86.721,773.01 C84.718,762.039 55.912,557.898 55.912,534.926 C55.912,471.585 83.158,446.023 163.857,444.97 C184.489,444.707 216.49,444.83 230.006,461.687 C241.141,475.559 266.08,490.153 267.8,506.971 C272.861,556.883 228.87,869.338 230.831,916.135 C231.188,924.867 170.736,929.301 168.955,913.566 C168.725,911.527 170.262,740.191 169.911,733.803 C167.687,693.428 159.182,593.254 157.901,541.299" fill="#2E79B1"/>
    <path d="M157.901,541.299 C160.457,593.57 160.808,621.303 160.349,634.367 C159.088,670.236 160.363,883.752 162.263,916.434 C161.843,924.867 108.587,927.682 98.199,909.742 C101.055,895.732 94.215,813.973 86.721,773.01 C84.718,762.039 55.912,557.898 55.912,534.926 C55.912,471.585 83.158,446.023 163.857,444.97 C184.489,444.707 216.49,444.83 230.006,461.687 C241.141,475.559 266.08,490.153 267.8,506.971 C272.861,556.883 228.87,869.338 230.831,916.135 C231.188,924.867 170.736,929.301 168.955,913.566 C168.725,911.527 170.262,740.191 169.911,733.803 C167.687,693.428 159.182,593.254 157.901,541.299 z M98.623,568.074 C109.159,577.119 113.614,702.018 115.407,719.463 M226.321,552.775 C225.606,601.844 214.357,702.64 214.849,718.51 M221.84,751.273 C215.342,772.254 200.854,890.152 210.845,905.148 M117.322,751.973 C123.396,773.947 135.682,895.588 122.921,908.142 M189.862,734.785 C203.473,726.592 228.835,728.785 240.822,731.789 M183.871,745.273 C198.048,738.223 223.835,737.283 237.822,742.277 M97.242,725.201 C120.189,728.068 129.41,729.64 146.008,736.676 M93.418,739.547 C111.4,736.551 116.925,739.283 135.907,745.273" fill-opacity="0" stroke="#1A1919" stroke-width="2.823" stroke-linecap="round" stroke-linejoin="round"/>
    <path d="M180.572,222.043 C200.799,230.933 221.081,259.414 217.773,282.048 C214.879,301.897 199.831,318.681 179.066,317.61 C166.795,316.978 155.874,310.861 145.23,305.345 C134.125,299.595 120.427,294.753 111.785,285.397 C99.366,271.955 94.779,247.518 102.658,230.808 C106.782,222.047 121.31,214.764 130.491,212.852 C147.308,209.351 165.522,215.431 180.572,222.043" fill="#FFFFFE"/>
    <path d="M180.572,222.043 C200.799,230.933 221.081,259.414 217.773,282.048 C214.879,301.897 199.831,318.681 179.066,317.61 C166.795,316.978 155.874,310.861 145.23,305.345 C134.125,299.595 120.427,294.753 111.785,285.397 C99.366,271.955 94.779,247.518 102.658,230.808 C106.782,222.047 121.31,214.764 130.491,212.852 C147.308,209.351 165.522,215.431 180.572,222.043 z" fill-opacity="0" stroke="#1A1919" stroke-width="3.32"/>
    <path d="M150.404,244.777 L115.146,384.523 L152.287,409.701 L186.116,398.309 L159.208,240.996 L150.404,244.777" fill="#E2604D"/>
    <path d="M150.404,244.777 L115.146,384.523 L152.287,409.701 L186.116,398.309 L159.208,240.996 L150.404,244.777 z" fill-opacity="0" stroke="#1A1919" stroke-width="3.32"/>
    <path d="M119.423,210.962 C103.686,217.709 74.871,221.819 50.815,228.956 C48.258,271.026 39.194,283.176 44.022,310.877 C50.441,347.64 61.892,371.46 57.188,417.638 C53.892,457.165 55.278,487.553 55.278,523.451 C55.912,541.937 54.955,549.91 54.955,558.83 C65.156,566.478 141.039,574.346 147.704,569.35 C158.944,560.922 161.306,492.857 161.306,492.857 L151.528,336.999 C151.528,336.999 105.183,276.157 119.423,210.962" fill="#2E79B1"/>
    <path d="M119.423,210.962 C103.686,217.709 74.871,221.819 50.815,228.956 C48.258,271.026 39.194,283.176 44.022,310.877 C50.441,347.64 61.892,371.46 57.188,417.638 C53.892,457.165 55.278,487.553 55.278,523.451 C55.912,541.937 54.955,549.91 54.955,558.83 C65.156,566.478 141.039,574.346 147.704,569.35 C158.944,560.922 161.306,492.857 161.306,492.857 L151.528,336.999 C151.528,336.999 105.183,276.157 119.423,210.962 z" fill-opacity="0" stroke="#1A1919" stroke-width="3.32"/>
    <path d="M173.378,163.748 C173.39,150.93 170.854,160.97 157.854,155.708 C148.318,151.852 132.367,149.815 134.666,160.74 C135.985,167.09 132.666,210.859 131.363,210.789 C141.396,247.398 170.709,220.7 175.731,209.371 C171.85,202.162 173.351,174.242 173.378,163.748" fill="#F8D2B8"/>
    <path d="M173.378,163.748 C173.39,150.93 170.854,160.97 157.854,155.708 C148.318,151.852 132.367,149.815 134.666,160.74 C135.985,167.09 132.666,210.859 131.363,210.789 C141.396,247.398 170.709,220.7 175.731,209.371 C171.85,202.162 173.351,174.242 173.378,163.748 z" fill-opacity="0" stroke="#1A1919" stroke-width="2.823" stroke-linecap="round" stroke-linejoin="round"/>
    <path d="M137.024,220.7 L149.147,246.669 L160.629,246.669 L169.911,222.751 L155.438,217.87 L137.024,220.7" fill="#E2604D"/>
    <path d="M137.024,220.7 L149.147,246.669 L160.629,246.669 L169.911,222.751 L155.438,217.87 L137.024,220.7 z" fill-opacity="0" stroke="#1A1919" stroke-width="3.32"/>
    <path d="M131.838,199.923 C134.04,205.589 141.747,214.091 154.797,218.347 C147.408,219.753 122.08,241.319 121.438,248.559 C112.793,241.159 122.08,208.898 122.08,208.898 C122.08,208.898 126.165,206.542 131.838,199.923" fill="#FFFFFE"/>
    <path d="M131.838,199.923 C134.04,205.589 141.747,214.091 154.797,218.347 C147.408,219.753 122.08,241.319 121.438,248.559 C112.793,241.159 122.08,208.898 122.08,208.898 C122.08,208.898 126.165,206.542 131.838,199.923 z" fill-opacity="0" stroke="#1A1919" stroke-width="3.32"/>
    <path d="M174.635,201.763 C172.748,208.063 171.024,211.41 155.905,218.347 C164.092,221.49 188.703,251.09 188.703,251.09 L187.606,207.971 C187.606,207.971 179.816,205.349 174.635,201.763" fill="#FFFFFE"/>
    <path d="M174.635,201.763 C172.748,208.063 171.024,211.41 155.905,218.347 C164.092,221.49 188.703,251.09 188.703,251.09 L187.606,207.971 C187.606,207.971 179.816,205.349 174.635,201.763 z" fill-opacity="0" stroke="#1A1919" stroke-width="3.32"/>
    <path d="M117.676,258 L119.813,259.214 C119.813,259.214 98.16,239.114 91.546,237.226 C98.44,229.697 104.915,220.407 110.428,213.96 C116.093,211.439 120.656,209.53 131.363,199.454 C124.749,212.203 126.645,253.753 126.645,253.753 L117.676,258" fill="#2E79B1"/>
    <path d="M117.676,258 L119.813,259.214 C119.813,259.214 98.16,239.114 91.546,237.226 C98.44,229.697 104.915,220.407 110.428,213.96 C116.093,211.439 120.656,209.53 131.363,199.454 C124.749,212.203 126.645,253.753 126.645,253.753 L117.676,258 z" fill-opacity="0" stroke="#1A1919" stroke-width="2.823" stroke-linecap="round" stroke-linejoin="round"/>
    <path d="M126.645,228.723 C125.38,245.721 147.179,318.47 155.353,339.87 C140.25,332.316 95.004,277.829 87.454,264.604 C100.674,248.559 115.777,237.695 126.645,228.723" fill="#2E79B1"/>
    <path d="M126.645,228.723 C125.38,245.721 147.179,318.47 155.353,339.87 C140.25,332.316 95.004,277.829 87.454,264.604 C100.674,248.559 115.777,237.695 126.645,228.723 z" fill-opacity="0" stroke="#1A1919" stroke-width="2.823" stroke-linecap="round" stroke-linejoin="round"/>
    <path d="M216.841,105.125 C218.4,77.949 211.541,51.536 191.862,37.893 C165.359,19.512 133.409,6.55 108.198,35.02 C94.316,50.699 89.087,76.77 90.535,103.234 C90.044,103.162 89.57,102.985 89.076,103.024 C68.264,104.713 73.587,141.593 96.631,141.593 C103.429,163.317 126.858,193.701 153.777,196.393 C177.288,198.749 201.224,164.637 209.903,141.483 C233.134,141.593 233.134,103.793 216.841,105.125" fill="#F8D2B8"/>
    <path d="M216.841,105.125 C218.4,77.949 211.541,51.536 191.862,37.893 C165.359,19.512 133.409,6.55 108.198,35.02 C94.316,50.699 89.087,76.77 90.535,103.234 C90.044,103.162 89.57,102.985 89.076,103.024 C68.264,104.713 73.587,141.593 96.631,141.593 C103.429,163.317 126.858,193.701 153.777,196.393 C177.288,198.749 201.224,164.637 209.903,141.483 C233.134,141.593 233.134,103.793 216.841,105.125 z" fill-opacity="0" stroke="#1A1919" stroke-width="2.823" stroke-linecap="round" stroke-linejoin="round"/>
    <g>
      <path d="M104.027,75.933 C93.157,89.304 91.445,116.512 94.981,132.724 C82.94,117.241 80.368,96.554 79.395,77.447 C78.692,63.449 86.488,42.809 97.11,31.761 C118.75,9.256 168.683,-15.413 186.914,19.319 C218.279,5.959 226.784,47.231 226.784,64.919 C226.784,90.71 221.112,107.664 212.611,131.988 C215.081,115.319 214.023,89.236 206.23,79.663 C200.181,72.228 182.532,58.325 173.639,59.762 C167.787,60.702 144.587,74.503 136.791,78.92 C138.919,71.553 141.949,70.493 144.047,65.048 C135.091,64.531 124.037,71.553 115.887,78.052 C116.236,70.084 118.279,66.519 124.037,60.49 C117.517,62.659 108.463,70.471 104.027,75.933" fill="#3E2D27"/>
      <path d="M104.027,75.933 C93.157,89.304 91.445,116.512 94.981,132.724 C82.94,117.241 80.368,96.554 79.395,77.447 C78.692,63.449 86.488,42.809 97.11,31.761 C118.75,9.256 168.683,-15.413 186.914,19.319 C218.279,5.959 226.784,47.231 226.784,64.919 C226.784,90.71 221.112,107.664 212.611,131.988 C215.081,115.319 214.023,89.236 206.23,79.663 C200.181,72.228 182.532,58.325 173.639,59.762 C167.787,60.702 144.587,74.503 136.791,78.92 C138.919,71.553 141.949,70.493 144.047,65.048 C135.091,64.531 124.037,71.553 115.887,78.052 C116.236,70.084 118.279,66.519 124.037,60.49 C117.517,62.659 108.463,70.471 104.027,75.933 z" fill-opacity="0" stroke="#1A1919" stroke-width="2.823" stroke-linecap="round" stroke-linejoin="round"/>
    </g>
    <path d="M111.291,95.389 C115.163,84.768 134.001,85.828 141.541,97.343 M165.473,96.984 C172.246,80.649 190.174,86.227 192.563,93.399 M156.311,118.498 L158.104,136.426 C158.104,136.426 167.067,135.828 167.067,143.597 C167.067,149.603 158.104,153.159 158.104,153.159 M139.775,160.024 C140.366,177.848 158.676,181.234 167.538,169.247" fill-opacity="0" stroke="#1A1919" stroke-width="3.32" stroke-linecap="round" stroke-linejoin="round"/>
    <path d="M52.087,475.643 C60.806,484.261 83.636,485.208 97.981,485.213 C97.503,492.865 97.958,492.965 96.709,501.778 C85.375,498.954 58.367,501.642 50.815,490.308 C52.087,485.205 49.566,479.419 52.087,475.643" fill="#2E79B1"/>
    <path d="M52.087,475.643 C60.806,484.261 83.636,485.208 97.981,485.213 C97.503,492.865 97.958,492.965 96.709,501.778 C85.375,498.954 58.367,501.642 50.815,490.308 C52.087,485.205 49.566,479.419 52.087,475.643 z" fill-opacity="0" stroke="#1A1919" stroke-width="2.823" stroke-linecap="round" stroke-linejoin="round"/>
    <path d="M188.98,208.536 C185.201,227.422 154.368,333.532 148.98,348.793 C140.725,379.716 147.704,490.308 147.704,501.778 C147.704,515.203 165.516,565.934 179.579,570.621 C194.874,575.719 266.337,569.519 270.733,557.875 C272.087,554.312 272.585,511.097 273.915,475.006 C275.86,422.326 270.091,378.968 270.091,370.466 C270.091,353.466 274.686,233.568 259.894,228.953 C229.345,219.412 201.73,214.114 188.98,208.536" fill="#2E79B1"/>
    <path d="M188.98,208.536 C185.201,227.422 154.368,333.532 148.98,348.793 C140.725,379.716 147.704,490.308 147.704,501.778 C147.704,515.203 165.516,565.934 179.579,570.621 C194.874,575.719 266.337,569.519 270.733,557.875 C272.087,554.312 272.585,511.097 273.915,475.006 C275.86,422.326 270.091,378.968 270.091,370.466 C270.091,353.466 274.686,233.568 259.894,228.953 C229.345,219.412 201.73,214.114 188.98,208.536 z" fill-opacity="0" stroke="#1A1919" stroke-width="3.32"/>
    <path d="M187.521,255.162 L199.496,251.699 C199.496,251.699 210.203,243.361 219.646,240.058 C216.973,234.395 203.324,220.886 196.149,208.933 C189.376,206.145 181.012,205.747 174.635,198.974 C178.433,207.476 186.914,228.414 181.879,244.145 C185.015,252.962 187.521,255.162 187.521,255.162" fill="#2E79B1"/>
    <path d="M187.521,255.162 L199.496,251.699 C199.496,251.699 210.203,243.361 219.646,240.058 C216.973,234.395 203.324,220.886 196.149,208.933 C189.376,206.145 181.012,205.747 174.635,198.974 C178.433,207.476 186.914,228.414 181.879,244.145 C185.015,252.962 187.521,255.162 187.521,255.162 z" fill-opacity="0" stroke="#1A1919" stroke-width="2.823" stroke-linecap="round" stroke-linejoin="round"/>
    <path d="M184.393,227.153 C185.649,243.519 148.98,333.496 147.704,356.444 C163.779,328.494 208.596,276.157 220.112,262.24 C210.203,248.559 197.461,237.695 184.393,227.153" fill="#2E79B1"/>
    <path d="M184.393,227.153 C185.649,243.519 148.98,333.496 147.704,356.444 C163.779,328.494 208.596,276.157 220.112,262.24 C210.203,248.559 197.461,237.695 184.393,227.153 z" fill-opacity="0" stroke="#1A1919" stroke-width="2.823" stroke-linecap="round" stroke-linejoin="round"/>
    <path d="M203.16,293.971 L203.722,306.144 L241.406,305.444 L240.448,293.025 L203.16,293.971" fill="#2E79B1"/>
    <path d="M203.16,293.971 L203.722,306.144 L241.406,305.444 L240.448,293.025 L203.16,293.971 z" fill-opacity="0" stroke="#1A1919" stroke-width="2.823" stroke-linecap="round" stroke-linejoin="round"/>
    <path d="M159.388,354.452 C172.853,357.326 163.857,373.061 155.617,369.314 C148.217,365.951 152.291,352.934 159.388,354.452" fill="#25608B"/>
    <path d="M159.388,354.452 C172.853,357.326 163.857,373.061 155.617,369.314 C148.217,365.951 152.291,352.934 159.388,354.452 z" fill-opacity="0" stroke="#1A1919" stroke-width="2.823" stroke-linecap="round" stroke-linejoin="round"/>
    <path d="M158.594,425.63 C169.709,427.719 164.543,443.828 155.244,439.791 C148.02,436.636 149.867,423.983 158.594,425.63" fill="#25608B"/>
    <path d="M158.594,425.63 C169.709,427.719 164.543,443.828 155.244,439.791 C148.02,436.636 149.867,423.983 158.594,425.63 z" fill-opacity="0" stroke="#1A1919" stroke-width="2.823" stroke-linecap="round" stroke-linejoin="round"/>
    <path d="M285.393,476.593 C285.393,476.593 238.846,488.617 226.107,487.118 C227.36,494.671 228.976,501.512 228.976,505.29 C240.783,502.934 284.288,494.981 291.781,492.731 C288.035,482.987 285.393,476.593 285.393,476.593" fill="#2E79B1"/>
    <path d="M285.393,476.593 C285.393,476.593 238.846,488.617 226.107,487.118 C227.36,494.671 228.976,501.512 228.976,505.29 C240.783,502.934 284.288,494.981 291.781,492.731 C288.035,482.987 285.393,476.593 285.393,476.593 z" fill-opacity="0" stroke="#1A1919" stroke-width="2.823" stroke-linecap="round" stroke-linejoin="round"/>
    <path d="M162.624,491.367 C173.203,495.406 164.297,508.745 157.029,506.34 C149.385,503.813 150.754,486.839 162.624,491.367" fill="#25608B"/>
    <path d="M162.624,491.367 C173.203,495.406 164.297,508.745 157.029,506.34 C149.385,503.813 150.754,486.839 162.624,491.367 z" fill-opacity="0" stroke="#1A1919" stroke-width="2.823" stroke-linecap="round" stroke-linejoin="round"/>
    <path d="M58.461,545.125 C46.034,546.08 29.778,542.574 20.215,542.574 C20.317,535.553 13.87,490.349 21.39,469.905 C33.829,463.306 55.278,470.545 55.278,470.545 C64.195,511.34 57.099,530.098 58.461,545.125" fill="#FFFFFE"/>
    <path d="M58.461,545.125 C46.034,546.08 29.778,542.574 20.215,542.574 C20.317,535.553 13.87,490.349 21.39,469.905 C33.829,463.306 55.278,470.545 55.278,470.545 C64.195,511.34 57.099,530.098 58.461,545.125 z" fill-opacity="0" stroke="#1A1919" stroke-width="3.32"/>
    <path d="M12.566,529.826 C25.631,533.014 51.13,536.518 59.736,533.652 C59.736,513.252 64.84,427.835 63.565,407.436 C64.84,385.765 65.666,337.979 68.662,320.748 C71.342,305.364 61.418,222.959 50.173,228.956 C34.28,237.432 27.868,264.652 22.767,293.973 C17.185,326.066 11.579,369.546 10.971,387.679 C9.687,426.293 10.504,509.889 12.566,529.826" fill="#2E79B1"/>
    <path d="M12.566,529.826 C25.631,533.014 51.13,536.518 59.736,533.652 C59.736,513.252 64.84,427.835 63.565,407.436 C64.84,385.765 65.666,337.979 68.662,320.748 C71.342,305.364 61.418,222.959 50.173,228.956 C34.28,237.432 27.868,264.652 22.767,293.973 C17.185,326.066 11.579,369.546 10.971,387.679 C9.687,426.293 10.504,509.889 12.566,529.826 z" fill-opacity="0" stroke="#1A1919" stroke-width="2.823" stroke-linecap="round" stroke-linejoin="round"/>
    <path d="M49.539,381.941 C55.912,388.314 59.736,394.374 63.561,405.846" fill="#2E79B1"/>
    <path d="M49.539,381.941 C55.912,388.314 59.736,394.374 63.561,405.846" fill-opacity="0" stroke="#1A1919" stroke-width="2.823" stroke-linecap="round" stroke-linejoin="round"/>
    <path d="M259.574,569.35 C258.703,575.578 256.773,577.719 257.664,584.646 C259.093,595.793 270.06,595.406 272.729,585.396 C273.908,580.986 273.293,569.185 277.744,564.57 C281.3,569.185 283.141,579.826 282.522,584.64 C281.109,595.646 274.204,595.957 267.153,602.125 C263.909,604.963 261.17,612.695 264.994,612.695 C272.982,612.695 278.903,607.787 286.171,605.855 C289.214,605.043 293.758,602.369 298.143,595.48 C302.605,588.474 316.627,581.531 314.075,570.283 C311.764,560.068 300.442,535.687 297.82,527.277 C295.583,520.09 297.186,512.613 293.206,506.854 C288.272,499.705 269.173,499.411 269.173,507.625 C269.173,512.246 276.382,525.297 270.091,531.101 C257.664,542.574 260.859,560.201 259.574,569.35" fill="#F8D2B8"/>
    <path d="M259.574,569.35 C258.703,575.578 256.773,577.719 257.664,584.646 C259.093,595.793 270.06,595.406 272.729,585.396 C273.908,580.986 273.293,569.185 277.744,564.57 C281.3,569.185 283.141,579.826 282.522,584.64 C281.109,595.646 274.204,595.957 267.153,602.125 C263.909,604.963 261.17,612.695 264.994,612.695 C272.982,612.695 278.903,607.787 286.171,605.855 C289.214,605.043 293.758,602.369 298.143,595.48 C302.605,588.474 316.627,581.531 314.075,570.283 C311.764,560.068 300.442,535.687 297.82,527.277 C295.583,520.09 297.186,512.613 293.206,506.854 C288.272,499.705 269.173,499.411 269.173,507.625 C269.173,512.246 276.382,525.297 270.091,531.101 C257.664,542.574 260.859,560.201 259.574,569.35" fill="#F8D2B8"/>
    <path d="M259.574,569.35 C258.703,575.578 256.773,577.719 257.664,584.646 C259.093,595.793 270.06,595.406 272.729,585.396 C273.908,580.986 273.293,569.185 277.744,564.57 C281.3,569.185 283.141,579.826 282.522,584.64 C281.109,595.646 274.204,595.957 267.153,602.125 C263.909,604.963 261.17,612.695 264.994,612.695 C272.982,612.695 278.903,607.787 286.171,605.855 C289.214,605.043 293.758,602.369 298.143,595.48 C302.605,588.474 316.627,581.531 314.075,570.283 C311.764,560.068 300.442,535.687 297.82,527.277 C295.583,520.09 297.186,512.613 293.206,506.854 C288.272,499.705 269.173,499.411 269.173,507.625 C269.173,512.246 276.382,525.297 270.091,531.101 C257.664,542.574 260.859,560.201 259.574,569.35 z M259.574,569.35 C258.703,575.578 256.773,577.719 257.664,584.646 C259.093,595.793 270.06,595.406 272.729,585.396 C273.908,580.986 273.293,569.185 277.744,564.57 C281.3,569.185 283.141,579.826 282.522,584.64 C281.109,595.646 274.204,595.957 267.153,602.125 C263.909,604.963 261.17,612.695 264.994,612.695 C272.982,612.695 278.903,607.787 286.171,605.855 C289.214,605.043 293.758,602.369 298.143,595.48 C302.605,588.474 316.627,581.531 314.075,570.283 C311.764,560.068 300.442,535.687 297.82,527.277 C295.583,520.09 297.186,512.613 293.206,506.854 C288.272,499.705 269.173,499.411 269.173,507.625 C269.173,512.246 276.382,525.297 270.091,531.101 C257.664,542.574 260.859,560.201 259.574,569.35 z" fill-opacity="0" stroke="#1A1919" stroke-width="2.823" stroke-linecap="round" stroke-linejoin="round"/>
    <path d="M282.525,579.549 C283.665,587.754 277.105,596.76 273.915,601.219 C271.305,605.926 267.862,608.869 270.733,613.969 C278.903,617.719 285.848,606.851 289.855,600.584 C295.407,591.889 299.1,580.824 299.1,571.898" fill="#F8D2B8"/>
    <path d="M282.525,579.549 C283.665,587.754 277.105,596.76 273.915,601.219 C271.305,605.926 267.862,608.869 270.733,613.969 C278.903,617.719 285.848,606.851 289.855,600.584 C295.407,591.889 299.1,580.824 299.1,571.898" fill-opacity="0" stroke="#1A1919" stroke-width="2.823" stroke-linecap="round" stroke-linejoin="round"/>
    <path d="M263.719,532.379 C273.281,534.287 291.128,532.695 302.605,531.101 C303.48,515.344 292.63,488.113 288.653,472.934 C276.55,465.6 262.788,473.192 262.788,473.192 C262.788,473.192 263.403,522.496 263.719,532.379" fill="#FFFFFE"/>
    <path d="M263.719,532.379 C273.281,534.287 291.128,532.695 302.605,531.101 C303.48,515.344 292.63,488.113 288.653,472.934 C276.55,465.6 262.788,473.192 262.788,473.192 C262.788,473.192 263.403,522.496 263.719,532.379 z" fill-opacity="0" stroke="#1A1919" stroke-width="3.32"/>
    <path d="M306.43,522.496 C297.82,525.045 271.049,523.773 258.622,520.902 C261.809,500.6 258.622,415.407 258.622,397.241 C255.75,375.246 254.377,328.502 251.926,311.186 C249.731,295.727 252.272,224.926 264.356,228.956 C279.654,234.054 294.602,262.595 298.776,292.062 C301.1,308.478 307.702,352.937 309.297,380.984 C309.997,393.309 311.526,484.249 306.43,522.496" fill="#2E79B1"/>
    <path d="M306.43,522.496 C297.82,525.045 271.049,523.773 258.622,520.902 C261.809,500.6 258.622,415.407 258.622,397.241 C255.75,375.246 254.377,328.502 251.926,311.186 C249.731,295.727 252.272,224.926 264.356,228.956 C279.654,234.054 294.602,262.595 298.776,292.062 C301.1,308.478 307.702,352.937 309.297,380.984 C309.997,393.309 311.526,484.249 306.43,522.496 z" fill-opacity="0" stroke="#1A1919" stroke-width="2.823" stroke-linecap="round" stroke-linejoin="round"/>
    <path d="M258.622,402.976 C261.17,392.776 261.489,386.087 269.139,378.117" fill="#2E79B1"/>
    <path d="M258.622,402.976 C261.17,392.776 261.489,386.087 269.139,378.117" fill-opacity="0" stroke="#1A1919" stroke-width="2.823" stroke-linecap="round" stroke-linejoin="round"/>
    <path d="M129.527,107.044 C134.868,106.277 134.285,116.096 129.527,116.623 C124.772,117.155 122.127,108.107 129.527,107.044" fill="#1A1919"/>
    <path d="M176.063,107.574 C180.824,107.574 180.821,117.212 175.005,116.623 C169.717,116.096 170.67,107.574 176.063,107.574" fill="#1A1919"/>
    <path d="M508.035,593.764 C507.392,595.142 499.642,601.062 498.062,595.578 C497.712,594.357 497.412,591.303 496.58,584.289 C494.039,579.205 493.908,574.658 490.88,576.392 C487.794,581.789 487.115,588.943 490.998,592.547 C493.876,595.254 493.591,592.723 495.865,595.068 C497.376,596.66 500.281,598.598 495.771,600.766 C491.32,602.906 490.14,602.34 483.795,601.359 C479.831,600.746 473.497,592.955 472.641,587.812 C470.249,573.469 471.045,560.723 475.829,551.16 C480.118,542.578 479.313,531.086 479.963,528.516 C484.407,511.013 479.885,459.877 492.65,466.427 C501.603,471.021 500.673,508.398 503.396,526.322 C504.871,538.242 506.761,538.951 509.13,546.4 C513.89,560.035 515.193,578.91 508.035,593.764" fill="#F4C5B7"/>
    <path d="M508.035,593.764 C507.392,595.142 499.642,601.062 498.062,595.578 C497.712,594.357 497.412,591.303 496.58,584.289 C494.039,579.205 493.908,574.658 490.88,576.392 C487.794,581.789 487.115,588.943 490.998,592.547 C493.876,595.254 493.591,592.723 495.865,595.068 C497.376,596.66 500.281,598.598 495.771,600.766 C491.32,602.906 490.14,602.34 483.795,601.359 C479.831,600.746 473.497,592.955 472.641,587.812 C470.249,573.469 471.045,560.723 475.829,551.16 C480.118,542.578 479.313,531.086 479.963,528.516 C484.407,511.013 479.885,459.877 492.65,466.427 C501.603,471.021 500.673,508.398 503.396,526.322 C504.871,538.242 506.761,538.951 509.13,546.4 C513.89,560.035 515.193,578.91 508.035,593.764" fill="#F4C4B1"/>
    <path d="M508.035,593.764 C507.392,595.142 499.642,601.062 498.062,595.578 C497.712,594.357 497.412,591.303 496.58,584.289 C494.039,579.205 493.908,574.658 490.88,576.392 C487.794,581.789 487.115,588.943 490.998,592.547 C493.876,595.254 493.591,592.723 495.865,595.068 C497.376,596.66 500.281,598.598 495.771,600.766 C491.32,602.906 490.14,602.34 483.795,601.359 C479.831,600.746 473.497,592.955 472.641,587.812 C470.249,573.469 471.045,560.723 475.829,551.16 C480.118,542.578 479.313,531.086 479.963,528.516 C484.407,511.013 479.885,459.877 492.65,466.427 C501.603,471.021 500.673,508.398 503.396,526.322 C504.871,538.242 506.761,538.951 509.13,546.4 C513.89,560.035 515.193,578.91 508.035,593.764 z M508.035,593.764 C507.392,595.142 499.642,601.062 498.062,595.578 C497.712,594.357 497.412,591.303 496.58,584.289 C494.039,579.205 493.908,574.658 490.88,576.392 C487.794,581.789 487.115,588.943 490.998,592.547 C493.876,595.254 493.591,592.723 495.865,595.068 C497.376,596.66 500.281,598.598 495.771,600.766 C491.32,602.906 490.14,602.34 483.795,601.359 C479.831,600.746 473.497,592.955 472.641,587.812 C470.249,573.469 471.045,560.723 475.829,551.16 C480.118,542.578 479.313,531.086 479.963,528.516 C484.407,511.013 479.885,459.877 492.65,466.427 C501.603,471.021 500.673,508.398 503.396,526.322 C504.871,538.242 506.761,538.951 509.13,546.4 C513.89,560.035 515.193,578.91 508.035,593.764 z" fill-opacity="0" stroke="#1A1919" stroke-width="2.823" stroke-linecap="round" stroke-linejoin="round"/>
    <path d="M522.414,645.678 L508.609,642.129 L469.252,675.406 L475.376,695.389 L522.414,645.678" fill="#FFFFFE"/>
    <path d="M522.414,645.678 L508.609,642.129 L469.252,675.406 L475.376,695.389 L522.414,645.678 z" fill-opacity="0" stroke="#1A1919" stroke-width="2.823" stroke-linecap="round" stroke-linejoin="round"/>
    <path d="M521.734,646.264 L529.222,756.082 L482.301,803.824 L483.721,676.576 L521.734,646.264" fill="#E4E4E3"/>
    <path d="M521.734,646.264 L529.222,756.082 L482.301,803.824 L483.721,676.576 L521.734,646.264 z" fill-opacity="0" stroke="#1A1919" stroke-width="2.823" stroke-linecap="round" stroke-linejoin="round"/>
    <path d="M484.168,676.353 L469.692,674.705 C469.692,674.705 459.643,788.258 459.553,796.855 C459.475,805.461 481.838,810.496 481.889,801.158 C481.936,791.812 484.168,676.353 484.168,676.353" fill="#FFFFFE"/>
    <path d="M484.168,676.353 L469.692,674.705 C469.692,674.705 459.643,788.258 459.553,796.855 C459.475,805.461 481.838,810.496 481.889,801.158 C481.936,791.812 484.168,676.353 484.168,676.353 z" fill-opacity="0" stroke="#1A1919" stroke-width="2.823" stroke-linecap="round" stroke-linejoin="round"/>
    <path d="M510.087,590.383 C510.099,596.805 514.035,664.248 513.421,664.207 C512.578,664.451 509.113,669.373 508.753,667.066 C507.089,656.558 505.757,602.473 506.263,595.48 C506.388,595.443 510.099,590.055 510.087,590.383" fill="#7F78AB"/>
    <path d="M510.087,590.383 C510.099,596.805 514.035,664.248 513.421,664.207 C512.578,664.451 509.113,669.373 508.753,667.066 C507.089,656.558 505.757,602.473 506.263,595.48 C506.388,595.443 510.099,590.055 510.087,590.383 z" fill-opacity="0" stroke="#1A1919" stroke-width="3.32"/>
    <path d="M507.505,659.988 C507.812,659.719 513.349,655.898 513.351,655.928 C513.474,659.185 514.593,664.715 514.228,668.555 C513.875,672.389 509.177,676.457 508.632,670.4 C508.082,664.334 507.505,659.988 507.505,659.988" fill="#7F78AB"/>
    <path d="M507.505,659.988 C507.812,659.719 513.349,655.898 513.351,655.928 C513.474,659.185 514.593,664.715 514.228,668.555 C513.875,672.389 509.177,676.457 508.632,670.4 C508.082,664.334 507.505,659.988 507.505,659.988 z" fill-opacity="0" stroke="#1A1919" stroke-width="3.32"/>
    <path d="M496.576,569.055 C499.626,571.189 499.681,586.049 499.716,587.812 C499.806,595.307 498.486,663.56 498.085,673.644 C498.035,674.934 493.677,674.379 492.638,675.051 C488.488,677.701 494.093,593.18 491.511,580.676 C490.697,576.654 492.371,566.103 496.576,569.055" fill="#FFFFFE"/>
    <path d="M496.576,569.055 C499.626,571.189 499.681,586.049 499.716,587.812 C499.806,595.307 498.486,663.56 498.085,673.644 C498.035,674.934 493.677,674.379 492.638,675.051 C488.488,677.701 494.093,593.18 491.511,580.676 C490.697,576.654 492.371,566.103 496.576,569.055 z" fill-opacity="0" stroke="#1A1919" stroke-width="2.823" stroke-linecap="round" stroke-linejoin="round"/>
    <path d="M492.039,671.361 C492.595,671.045 498.615,666.199 498.607,666.273 C498.584,667.086 499.369,673.553 499.572,677.455 C499.775,681.357 492.857,684.439 492.41,678.797 C491.97,673.148 492.039,671.361 492.039,671.361" fill="#AFAEAB"/>
    <path d="M492.039,671.361 C492.595,671.045 498.615,666.199 498.607,666.273 C498.584,667.086 499.369,673.553 499.572,677.455 C499.775,681.357 492.857,684.439 492.41,678.797 C491.97,673.148 492.039,671.361 492.039,671.361 z" fill-opacity="0" stroke="#1A1919" stroke-width="2.823" stroke-linecap="round" stroke-linejoin="round"/>
    <path d="M477.364,668.014 C479.823,665.777 481.512,664.275 484.18,662.113 C484.588,656.394 493.433,580.369 493.677,572.473 C493.837,567.668 490.324,568.006 488.699,571.68 C486.677,576.232 486.289,582.17 485.664,587.541 C484.516,597.338 478.336,660.691 477.364,668.014" fill="#FFFFFE"/>
    <path d="M477.364,668.014 C479.823,665.777 481.512,664.275 484.18,662.113 C484.588,656.394 493.433,580.369 493.677,572.473 C493.837,567.668 490.324,568.006 488.699,571.68 C486.677,576.232 486.289,582.17 485.664,587.541 C484.516,597.338 478.336,660.691 477.364,668.014 z" fill-opacity="0" stroke="#1A1919" stroke-width="2.823" stroke-linecap="round" stroke-linejoin="round"/>
    <path d="M523.283,687.273 L483.823,717.314" fill="#6F67A0"/>
    <path d="M523.283,687.273 L483.823,717.314" fill-opacity="0" stroke="#1A1919" stroke-width="3.32"/>
    <path d="M588.433,893.789 C599.701,886.211 622.695,926.258 629.542,932.637 C635.207,937.922 640.908,943.605 647.695,947.434 C656.197,952.23 669.437,947.244 673.277,957.537 C675.705,964.058 676.458,977.934 671.998,981.123 C664.826,986.25 649.035,977.519 642.996,973.801 C626.421,963.6 618.134,954.684 612.4,939.381 C609.529,949.896 611.443,951.812 603.794,953.724 C600.199,954.625 583.683,948.414 582.121,940.965 C581.054,935.902 584.279,896.58 588.433,893.789" fill="#4A6573"/>
    <path d="M588.433,893.789 C599.701,886.211 622.695,926.258 629.542,932.637 C635.207,937.922 640.908,943.605 647.695,947.434 C656.197,952.23 669.437,947.244 673.277,957.537 C675.705,964.058 676.458,977.934 671.998,981.123 C664.826,986.25 649.035,977.519 642.996,973.801 C626.421,963.6 618.134,954.684 612.4,939.381 C609.529,949.896 611.443,951.812 603.794,953.724 C600.199,954.625 583.683,948.414 582.121,940.965 C581.054,935.902 584.279,896.58 588.433,893.789 z" fill-opacity="0" stroke="#1A1919" stroke-width="3.32"/>
    <path d="M587.478,911.957 C591.322,923.998 602.015,934.498 607.078,941.918 C615.365,954.057 658.294,985.277 671.363,976.018 C686.972,964.965 654.468,921.207 631.523,902.082 C625.892,897.39 625.173,895.125 620.367,890.098 C613.638,883.018 615.992,871.486 603.042,874.217 C586.318,877.756 582.255,895.568 587.478,911.957" fill="#FFFFFE"/>
    <path d="M587.478,911.957 C591.322,923.998 602.015,934.498 607.078,941.918 C615.365,954.057 658.294,985.277 671.363,976.018 C686.972,964.965 654.468,921.207 631.523,902.082 C625.892,897.39 625.173,895.125 620.367,890.098 C613.638,883.018 615.992,871.486 603.042,874.217 C586.318,877.756 582.255,895.568 587.478,911.957 z" fill-opacity="0" stroke="#1A1919" stroke-width="3.32"/>
    <path d="M584.033,872.758 C586.96,828.777 582.757,766.914 582.757,723.596 C582.757,699.908 587.492,615.359 609.462,597.094 C647.4,565.545 638.791,673.963 638.853,685.351 C639.171,742.402 608.257,837.062 613.357,875.307 C615.369,890.41 655.427,920.25 637.199,927.254 C628.111,930.75 608.576,925.986 597.103,910.687 C589.453,900.49 582.757,891.879 584.033,872.758" fill="#F4C4B1"/>
    <path d="M584.033,872.758 C586.96,828.777 582.757,766.914 582.757,723.596 C582.757,699.908 587.492,615.359 609.462,597.094 C647.4,565.545 638.791,673.963 638.853,685.351 C639.171,742.402 608.257,837.062 613.357,875.307 C615.369,890.41 655.427,920.25 637.199,927.254 C628.111,930.75 608.576,925.986 597.103,910.687 C589.453,900.49 582.757,891.879 584.033,872.758 z" fill-opacity="0" stroke="#1A1919" stroke-width="2.823" stroke-linecap="round" stroke-linejoin="round"/>
    <g>
      <path d="M588.496,911.644 C576.355,905.566 554.232,944.107 547.388,950.492 C541.722,955.773 536.019,961.459 529.234,965.289 C520.73,970.082 510.099,967.008 506.263,977.303 C503.835,983.822 499.74,999.791 507.541,1003.44 C515.523,1007.17 530.998,998.49 536.859,994.508 C554.617,982.461 558.853,965.199 572.242,951.812 C573.513,958.184 573.199,963.285 577.019,964.242 C580.615,965.14 586.902,962.332 589.453,960.418 C596.15,955.398 593.593,914.191 588.496,911.644" fill="#4A6573"/>
      <path d="M588.496,911.644 C576.355,905.566 554.232,944.107 547.388,950.492 C541.722,955.773 536.019,961.459 529.234,965.289 C520.73,970.082 510.099,967.008 506.263,977.303 C503.835,983.822 499.74,999.791 507.541,1003.44 C515.523,1007.17 530.998,998.49 536.859,994.508 C554.617,982.461 558.853,965.199 572.242,951.812 C573.513,958.184 573.199,963.285 577.019,964.242 C580.615,965.14 586.902,962.332 589.453,960.418 C596.15,955.398 593.593,914.191 588.496,911.644 z" fill-opacity="0" stroke="#1A1919" stroke-width="3.32"/>
      <path d="M592.32,931.721 C588.084,944.986 574.64,954.045 568.732,960.724 C554.072,977.303 519.484,1006.02 507.541,997.058 C492.234,985.582 523.476,935.549 546.421,916.422 C552.052,911.73 551.757,912.978 556.562,907.949 C563.292,900.871 560.654,892.176 573.886,892.074 C598.06,891.879 597.546,915.334 592.32,931.721" fill="#FFFFFE"/>
      <path d="M592.32,931.721 C588.084,944.986 574.64,954.045 568.732,960.724 C554.072,977.303 519.484,1006.02 507.541,997.058 C492.234,985.582 523.476,935.549 546.421,916.422 C552.052,911.73 551.757,912.978 556.562,907.949 C563.292,900.871 560.654,892.176 573.886,892.074 C598.06,891.879 597.546,915.334 592.32,931.721 z" fill-opacity="0" stroke="#1A1919" stroke-width="3.32"/>
    </g>
    <path d="M587.857,886.783 C588.496,842.795 591.363,794.326 591.363,751.008 C591.363,727.322 595.503,629.26 567.466,614.949 C523.515,592.519 540.439,712.771 540.689,724.152 C541.646,767.262 562.066,847.639 557.9,891.121 C556.453,906.287 525.39,938.412 538.136,946.699 C546.298,952.01 568.814,939.252 580.843,924.39 C591.687,911.008 590.408,902.082 587.857,886.783" fill="#F4C4B1"/>
    <path d="M587.857,886.783 C588.496,842.795 591.363,794.326 591.363,751.008 C591.363,727.322 595.503,629.26 567.466,614.949 C523.515,592.519 540.439,712.771 540.689,724.152 C541.646,767.262 562.066,847.639 557.9,891.121 C556.453,906.287 525.39,938.412 538.136,946.699 C546.298,952.01 568.814,939.252 580.843,924.39 C591.687,911.008 590.408,902.082 587.857,886.783 z" fill-opacity="0" stroke="#1A1919" stroke-width="2.823" stroke-linecap="round" stroke-linejoin="round"/>
    <path d="M521.566,464.172 C521.566,464.172 497.332,649.674 499.886,675.164 C525.378,712.125 657.976,701.939 687.294,678.992 C682.193,605.051 674.552,440.585 674.552,440.585 L521.566,464.172" fill="#F5C9C6"/>
    <path d="M521.566,464.172 C521.566,464.172 497.332,649.674 499.886,675.164 C525.378,712.125 657.976,701.939 687.294,678.992 C682.193,605.051 674.552,440.585 674.552,440.585 L521.566,464.172 z" fill-opacity="0" stroke="#1A1919" stroke-width="2.823" stroke-linecap="round" stroke-linejoin="round"/>
    <path d="M529.81,57.13 C539.248,43.905 565.355,29.702 584.675,29.702 C608.441,29.702 640.179,41.007 655.082,79.082 C663.31,100.114 657.824,133.031 653.252,141.258 C649.14,147.666 652.164,139.787 650.957,145.368 C649.57,151.784 623.255,164.932 622.158,171.428 C629.48,175.087 646.787,193.808 648.334,206.542 C651.992,236.714 619.412,250.97 590.158,251.888 C571.548,252.475 544.964,233.466 549.533,206.943 C550.949,198.717 553.037,191.42 557.232,184.224 C559.271,180.731 548.584,175.587 549.005,171.428 C549.966,161.882 530.492,163.294 527.453,154.808 C526.273,151.521 523.189,150.684 519.753,144.448 C517.46,145.823 517.927,139.885 517.46,133.476 C499.63,95.998 520.671,69.926 529.81,57.13" fill="#644844"/>
    <path d="M529.81,57.13 C539.248,43.905 565.355,29.702 584.675,29.702 C608.441,29.702 640.179,41.007 655.082,79.082 C663.31,100.114 657.824,133.031 653.252,141.258 C649.14,147.666 652.164,139.787 650.957,145.368 C649.57,151.784 623.255,164.932 622.158,171.428 C629.48,175.087 646.787,193.808 648.334,206.542 C651.992,236.714 619.412,250.97 590.158,251.888 C571.548,252.475 544.964,233.466 549.533,206.943 C550.949,198.717 553.037,191.42 557.232,184.224 C559.271,180.731 548.584,175.587 549.005,171.428 C549.966,161.882 530.492,163.294 527.453,154.808 C526.273,151.521 523.189,150.684 519.753,144.448 C517.46,145.823 517.927,139.885 517.46,133.476 C499.63,95.998 520.671,69.926 529.81,57.13 z" fill-opacity="0" stroke="#1A1919" stroke-width="2.823" stroke-linecap="round" stroke-linejoin="round"/>
    <path d="M611.96,236.992 C631.171,245.436 650.443,272.496 647.302,293.998 C644.548,312.853 630.257,328.798 610.529,327.782 C598.869,327.181 589.691,352.118 579.574,346.879 C569.023,341.411 554.828,306.064 546.615,297.181 C534.808,284.411 530.458,261.194 537.941,245.32 C541.855,236.994 555.66,230.077 564.386,228.26 C580.357,224.935 597.662,230.709 611.96,236.992" fill="#FFFFFE"/>
    <path d="M611.96,236.992 C631.171,245.436 650.443,272.496 647.302,293.998 C644.548,312.853 630.257,328.798 610.529,327.782 C598.869,327.181 589.691,352.118 579.574,346.879 C569.023,341.411 554.828,306.064 546.615,297.181 C534.808,284.411 530.458,261.194 537.941,245.32 C541.855,236.994 555.66,230.077 564.386,228.26 C580.357,224.935 597.662,230.709 611.96,236.992 z" fill-opacity="0" stroke="#1A1919" stroke-width="3.32"/>
    <path d="M627.621,225.27 C624.027,242.212 600.615,337.312 587.857,352.616 C580.015,380.357 580.738,476.977 580.738,487.274 C580.738,499.317 588.523,546.976 601.88,551.182 C616.416,555.754 691.418,553.027 695.582,542.574 C697.691,537.355 691.13,492.85 686.027,466.076 C682.269,446.333 685.07,429.392 685.07,412.537 C685.07,395.964 690.632,344.676 694.943,301.619 C697.277,278.239 695.373,255.955 687.294,249.152 C664.154,229.665 635.587,231.246 627.621,225.27" fill="#F5C9C6"/>
    <path d="M627.621,225.27 C624.027,242.212 600.615,337.312 587.857,352.616 C580.015,380.357 580.738,476.977 580.738,487.274 C580.738,499.317 588.523,546.976 601.88,551.182 C616.416,555.754 691.418,553.027 695.582,542.574 C697.691,537.355 691.13,492.85 686.027,466.076 C682.269,446.333 685.07,429.392 685.07,412.537 C685.07,395.964 690.632,344.676 694.943,301.619 C697.277,278.239 695.373,255.955 687.294,249.152 C664.154,229.665 635.587,231.246 627.621,225.27 z" fill-opacity="0" stroke="#1A1919" stroke-width="2.823" stroke-linecap="round" stroke-linejoin="round"/>
    <path d="M602.517,181.047 C602.535,168.869 602.728,178.972 590.384,173.974 C581.322,170.31 568.066,168.15 568.351,178.756 C568.74,193.248 569.05,223.675 563.472,230.05 C567.861,246.048 581.496,250.627 585.314,257 C594.83,254.447 607.113,234.268 609.691,228.456 C600.525,222.081 602.5,191.016 602.517,181.047" fill="#F4C4B1"/>
    <path d="M602.517,181.047 C602.535,168.869 602.728,178.972 590.384,173.974 C581.322,170.31 568.066,168.15 568.351,178.756 C568.74,193.248 569.05,223.675 563.472,230.05 C567.861,246.048 581.496,250.627 585.314,257 C594.83,254.447 607.113,234.268 609.691,228.456 C600.525,222.081 602.5,191.016 602.517,181.047 z" fill-opacity="0" stroke="#1A1919" stroke-width="2.823" stroke-linecap="round" stroke-linejoin="round"/>
    <path d="M655.541,133.476 C653.236,135.494 651.08,146.046 642.273,149.484 C642.771,141.242 641.65,90.356 616.064,82.125 C623.066,90.652 626.087,103.338 624.792,108.899 C622.951,108.277 616.671,110.043 613.933,110.043 C610.72,101.361 609.05,87.614 597.175,82.125 C600.218,88.516 607.16,103.546 605.935,109.472 C601.679,110.39 596.414,109.436 593.359,110.043 C590.839,101.344 587.648,90.424 582.839,84.557 C578.566,87.302 576.568,99.532 573.357,112.327 C569.992,112.327 564.449,111.794 560.787,111.186 C559.238,105.985 561.503,91.572 564.101,84.557 C557.248,86.847 552.095,102.159 551.644,111.755 C548.683,111.366 543.074,114.608 542.502,111.755 C541.576,107.16 546.275,90.045 551.449,85.166 C529.207,96.451 528.814,137.222 531.642,150.405 C531.168,150.336 518.841,139.433 517.46,133.027 C514.722,135.314 511.533,142.919 514.496,150.047 C517.357,156.901 523.371,160.933 530.814,161.662 C531.32,163.281 531.826,164.905 532.386,166.478 C542.812,195.752 565.58,212.421 586.535,214.662 C602.755,216.393 627.574,197.075 638.63,170.643 C639.677,168.136 640.638,165.549 641.535,162.921 C648.537,161.084 655.585,153.983 657.546,145.819 C658.589,141.475 659.197,136.686 655.541,133.476" fill="#F4C4B1"/>
    <path d="M655.541,133.476 C653.236,135.494 651.08,146.046 642.273,149.484 C642.771,141.242 641.65,90.356 616.064,82.125 C623.066,90.652 626.087,103.338 624.792,108.899 C622.951,108.277 616.671,110.043 613.933,110.043 C610.72,101.361 609.05,87.614 597.175,82.125 C600.218,88.516 607.16,103.546 605.935,109.472 C601.679,110.39 596.414,109.436 593.359,110.043 C590.839,101.344 587.648,90.424 582.839,84.557 C578.566,87.302 576.568,99.532 573.357,112.327 C569.992,112.327 564.449,111.794 560.787,111.186 C559.238,105.985 561.503,91.572 564.101,84.557 C557.248,86.847 552.095,102.159 551.644,111.755 C548.683,111.366 543.074,114.608 542.502,111.755 C541.576,107.16 546.275,90.045 551.449,85.166 C529.207,96.451 528.814,137.222 531.642,150.405 C531.168,150.336 518.841,139.433 517.46,133.027 C514.722,135.314 511.533,142.919 514.496,150.047 C517.357,156.901 523.371,160.933 530.814,161.662 C531.32,163.281 531.826,164.905 532.386,166.478 C542.812,195.752 565.58,212.421 586.535,214.662 C602.755,216.393 627.574,197.075 638.63,170.643 C639.677,168.136 640.638,165.549 641.535,162.921 C648.537,161.084 655.585,153.983 657.546,145.819 C658.589,141.475 659.197,136.686 655.541,133.476 z M545.392,118.99 C548.025,110.234 566.664,109.732 573.929,119.375 M595.265,118.616 C601.98,109.991 620.789,111.378 624.73,116.502 M585.386,148.776 C587.291,153.348 586.185,161.125 586.185,161.125 C586.185,161.125 579.812,160.329 578.613,165.51 C577.796,169.047 586.505,175.093 586.505,175.093 M578.271,185.151 C584.367,199.768 597.996,196.236 600.128,183.438" fill-opacity="0" stroke="#1A1919" stroke-width="2.823" stroke-linecap="round" stroke-linejoin="round"/>
    <path d="M629.472,301.509 L628.664,313.094 L660.824,312.404 L660.041,300.605 L629.472,301.509" fill="#F5C9C6"/>
    <path d="M629.472,301.509 L628.664,313.094 L660.824,312.404 L660.041,300.605 L629.472,301.509 z" fill-opacity="0" stroke="#1A1919" stroke-width="2.823" stroke-linecap="round" stroke-linejoin="round"/>
    <path d="M689.839,467.347 C689.839,467.347 661.158,475.069 649.05,473.727 C650.242,480.503 647.771,489.021 650.33,492.85 C663.076,492.85 684.003,485.939 691.123,483.921 C689.851,476.275 689.839,467.347 689.839,467.347" fill="#F5C9C6"/>
    <path d="M689.839,467.347 C689.839,467.347 661.158,475.069 649.05,473.727 C650.242,480.503 647.771,489.021 650.33,492.85 C663.076,492.85 684.003,485.939 691.123,483.921 C689.851,476.275 689.839,467.347 689.839,467.347 z" fill-opacity="0" stroke="#1A1919" stroke-width="2.823" stroke-linecap="round" stroke-linejoin="round"/>
    <path d="M588.492,260.181 C590.566,279.453 590.496,293.426 591.044,299.702 C591.675,306.892 589.134,336.028 590.41,342.413" fill="#AAA4C5"/>
    <path d="M588.492,260.181 C590.566,279.453 590.496,293.426 591.044,299.702 C591.675,306.892 589.134,336.028 590.41,342.413" fill-opacity="0" stroke="#1A1919" stroke-width="2.823" stroke-linecap="round" stroke-linejoin="round"/>
    <path d="M618.56,268.458 L629.939,265.167 C629.939,265.167 640.109,257.245 649.082,254.105 C646.537,248.728 636.888,233.298 628.81,225.667 C619.843,224.218 618.455,223.276 607.623,218.115 C611.224,226.191 620.054,243.391 615.267,258.336 C618.244,266.711 618.56,268.458 618.56,268.458" fill="#F5C9C6"/>
    <path d="M618.56,268.458 L629.939,265.167 C629.939,265.167 640.109,257.245 649.082,254.105 C646.537,248.728 636.888,233.298 628.81,225.667 C619.843,224.218 618.455,223.276 607.623,218.115 C611.224,226.191 620.054,243.391 615.267,258.336 C618.244,266.711 618.56,268.458 618.56,268.458 z" fill-opacity="0" stroke="#1A1919" stroke-width="2.823" stroke-linecap="round" stroke-linejoin="round"/>
    <path d="M615.584,241.847 C619.451,257.14 596.783,330.939 586.582,351.342 C610.798,339.87 638.847,295.249 646.505,279.947 C637.576,265.917 627.998,251.864 615.584,241.847" fill="#F5C9C6"/>
    <path d="M615.584,241.847 C619.451,257.14 596.783,330.939 586.582,351.342 C610.798,339.87 638.847,295.249 646.505,279.947 C637.576,265.917 627.998,251.864 615.584,241.847 z" fill-opacity="0" stroke="#1A1919" stroke-width="2.823" stroke-linecap="round" stroke-linejoin="round"/>
    <path d="M595.744,235.627 L586.582,257 L608.89,237.869 L595.744,235.627" fill="#EFEDF2"/>
    <path d="M595.744,235.627 L586.582,257 L608.89,237.869 L595.744,235.627 z" fill-opacity="0" stroke="#1A1919" stroke-width="2.823" stroke-linecap="round" stroke-linejoin="round"/>
    <path d="M604.908,216.105 C604.515,222.863 606.187,229.256 595.347,235.627 C603.124,238.615 617.82,250.613 619.095,258.272 C625.652,238.804 616.535,221.296 616.535,221.296 C616.535,221.296 609.373,219.294 604.908,216.105" fill="#FFFFFE"/>
    <path d="M604.908,216.105 C604.515,222.863 606.187,229.256 595.347,235.627 C603.124,238.615 617.82,250.613 619.095,258.272 C625.652,238.804 616.535,221.296 616.535,221.296 C616.535,221.296 609.373,219.294 604.908,216.105 z" fill-opacity="0" stroke="#1A1919" stroke-width="2.823" stroke-linecap="round" stroke-linejoin="round"/>
    <path d="M606,263.659 C606,266.977 603.654,269.668 600.759,269.668 C597.873,269.668 595.523,266.977 595.523,263.659 C595.523,260.338 597.873,257.653 600.759,257.653 C603.654,257.653 606,260.338 606,263.659" fill="#FFFFFE"/>
    <path d="M606,263.659 C606,266.977 603.654,269.668 600.759,269.668 C597.873,269.668 595.523,266.977 595.523,263.659 C595.523,260.338 597.873,257.653 600.759,257.653 C603.654,257.653 606,260.338 606,263.659 z" fill-opacity="0" stroke="#1A1919" stroke-width="3.32"/>
    <path d="M553.861,226.346 C538.914,232.399 524.119,232.78 503.71,245.526 C483.309,258.272 484.254,289.981 489.697,319.468 C495.794,352.452 508.185,382.584 503.71,424.011 C500.584,459.479 507.031,455.09 503.396,487.118 C505.306,512.935 500.529,540.025 504.349,546.4 C508.683,557.488 575.148,555.971 581.484,551.49 C592.16,543.935 594.232,508.147 594.232,508.147 C594.232,508.147 601.886,366.632 589.761,351.505 C583.382,343.545 540.337,284.841 553.861,226.346" fill="#F5C9C6"/>
    <path d="M553.861,226.346 C538.914,232.399 524.119,232.78 503.71,245.526 C483.309,258.272 484.254,289.981 489.697,319.468 C495.794,352.452 508.185,382.584 503.71,424.011 C500.584,459.479 507.031,455.09 503.396,487.118 C505.306,512.935 500.529,540.025 504.349,546.4 C508.683,557.488 575.148,555.971 581.484,551.49 C592.16,543.935 594.232,508.147 594.232,508.147 C594.232,508.147 601.886,366.632 589.761,351.505 C583.382,343.545 540.337,284.841 553.861,226.346 z" fill-opacity="0" stroke="#1A1919" stroke-width="2.823" stroke-linecap="round" stroke-linejoin="round"/>
    <path d="M497.343,464.802 C507.541,469.905 519.871,472.402 533.5,472.408 C533.039,479.275 531.603,484.228 529.218,490.308 C518.449,487.77 504.984,486.478 492.242,481.376 C493.449,476.801 494.943,468.188 497.343,464.802" fill="#F5C9C6"/>
    <path d="M497.343,464.802 C507.541,469.905 519.871,472.402 533.5,472.408 C533.039,479.275 531.603,484.228 529.218,490.308 C518.449,487.77 504.984,486.478 492.242,481.376 C493.449,476.801 494.943,468.188 497.343,464.802 z" fill-opacity="0" stroke="#1A1919" stroke-width="2.823" stroke-linecap="round" stroke-linejoin="round"/>
    <path d="M581.792,371.073 C594.589,373.804 586.041,388.756 578.208,385.196 C571.183,381.998 575.05,369.632 581.792,371.073" fill="#E3AAB5"/>
    <path d="M581.792,371.073 C594.589,373.804 586.041,388.756 578.208,385.196 C571.183,381.998 575.05,369.632 581.792,371.073 z" fill-opacity="0" stroke="#1A1919" stroke-width="2.823" stroke-linecap="round" stroke-linejoin="round"/>
    <path d="M584.707,428.487 C595.265,430.473 590.355,445.773 581.531,441.938 C574.662,438.941 576.419,426.919 584.707,428.487" fill="#E3AAB5"/>
    <path d="M584.707,428.487 C595.265,430.473 590.355,445.773 581.531,441.938 C574.662,438.941 576.419,426.919 584.707,428.487 z" fill-opacity="0" stroke="#1A1919" stroke-width="2.823" stroke-linecap="round" stroke-linejoin="round"/>
    <path d="M584.072,488.38 C592.955,492.994 587.111,504.839 580.21,502.557 C572.941,500.156 574.156,483.227 584.072,488.38" fill="#E3AAB5"/>
    <path d="M584.072,488.38 C592.955,492.994 587.111,504.839 580.21,502.557 C572.941,500.156 574.156,483.227 584.072,488.38 z" fill-opacity="0" stroke="#1A1919" stroke-width="2.823" stroke-linecap="round" stroke-linejoin="round"/>
    <path d="M552.201,271.152 L554.236,272.306 C554.236,272.306 533.669,253.212 527.378,251.417 C533.929,244.264 540.085,235.44 545.322,229.314 C550.707,226.92 555.033,225.106 565.21,215.533 C558.923,227.645 560.724,267.118 560.724,267.118 L552.201,271.152" fill="#F5C9C6"/>
    <path d="M552.201,271.152 L554.236,272.306 C554.236,272.306 533.669,253.212 527.378,251.417 C533.929,244.264 540.085,235.44 545.322,229.314 C550.707,226.92 555.033,225.106 565.21,215.533 C558.923,227.645 560.724,267.118 560.724,267.118 L552.201,271.152 z" fill-opacity="0" stroke="#1A1919" stroke-width="2.823" stroke-linecap="round" stroke-linejoin="round"/>
    <path d="M560.724,243.34 C559.054,265.769 590.998,344.525 594.232,362.817 C579.878,355.642 541.96,306.723 530.492,292.692 C536.859,276.118 550.404,251.864 560.724,243.34" fill="#F5C9C6"/>
    <path d="M560.724,243.34 C559.054,265.769 590.998,344.525 594.232,362.817 C579.878,355.642 541.96,306.723 530.492,292.692 C536.859,276.118 550.404,251.864 560.724,243.34 z" fill-opacity="0" stroke="#1A1919" stroke-width="2.823" stroke-linecap="round" stroke-linejoin="round"/>
    <path d="M579.574,239.142 C582.753,247.434 588.009,256.235 589.142,264.009 C588.8,261.642 565.58,242.379 564.273,239.792 C562.078,235.452 573.337,238.833 570.843,235.026 C570.794,234.948 578.365,239.306 579.574,239.142" fill="#EFEDF2"/>
    <path d="M579.574,239.142 C582.753,247.434 588.009,256.235 589.142,264.009 C588.8,261.642 565.58,242.379 564.273,239.792 C562.078,235.452 573.337,238.833 570.843,235.026 C570.794,234.948 578.365,239.306 579.574,239.142 z" fill-opacity="0" stroke="#1A1919" stroke-width="2.823" stroke-linecap="round" stroke-linejoin="round"/>
    <path d="M565.658,215.981 C567.752,221.362 568.74,232.768 579.574,238.506 C572.552,239.843 556.394,255.306 555.783,262.183 C547.57,255.154 556.394,224.506 556.394,224.506 C556.394,224.506 560.273,222.268 565.658,215.981" fill="#FFFFFE"/>
    <path d="M565.658,215.981 C567.752,221.362 568.74,232.768 579.574,238.506 C572.552,239.843 556.394,255.306 555.783,262.183 C547.57,255.154 556.394,224.506 556.394,224.506 C556.394,224.506 560.273,222.268 565.658,215.981 z" fill-opacity="0" stroke="#1A1919" stroke-width="2.823" stroke-linecap="round" stroke-linejoin="round"/>
    <path d="M507.541,531.101 C497.339,536.021 485.55,533.971 474.391,534.926 C474.583,521.687 467.502,482.703 472.206,469.906 C484.018,463.639 504.404,470.521 504.404,470.521 C509.451,505.596 506.24,516.826 507.541,531.101" fill="#FFFFFE"/>
    <path d="M507.541,531.101 C497.339,536.021 485.55,533.971 474.391,534.926 C474.583,521.687 467.502,482.703 472.206,469.906 C484.018,463.639 504.404,470.521 504.404,470.521 C509.451,505.596 506.24,516.826 507.541,531.101 z" fill-opacity="0" stroke="#1A1919" stroke-width="2.823" stroke-linecap="round" stroke-linejoin="round"/>
    <path d="M466.743,526 C482.045,525.045 502.443,522.814 510.087,523.451 C507.537,501.778 511.298,417.881 510.085,398.506 C511.298,377.917 514.263,339.479 517.107,323.109 C519.656,308.496 519.492,236.002 508.816,241.698 C493.712,249.75 478.352,269.815 473.508,297.675 C468.21,328.161 468.598,371.081 468.024,388.307 C466.805,424.991 466.264,504.222 466.743,526" fill="#F5C9C6"/>
    <path d="M466.743,526 C482.045,525.045 502.443,522.814 510.087,523.451 C507.537,501.778 511.298,417.881 510.085,398.506 C511.298,377.917 514.263,339.479 517.107,323.109 C519.656,308.496 519.492,236.002 508.816,241.698 C493.712,249.75 478.352,269.815 473.508,297.675 C468.21,328.161 468.598,371.081 468.024,388.307 C466.805,424.991 466.264,504.222 466.743,526 z" fill-opacity="0" stroke="#1A1919" stroke-width="2.823" stroke-linecap="round" stroke-linejoin="round"/>
    <path d="M498.941,381.241 C505,387.299 508.816,402.335 510.087,415.08" fill="#789EC7"/>
    <path d="M498.941,381.241 C505,387.299 508.816,402.335 510.087,415.08" fill-opacity="0" stroke="#1A1919" stroke-width="2.823" stroke-linecap="round" stroke-linejoin="round"/>
    <path d="M673.638,566.764 C672.814,572.687 672.908,577.906 673.748,584.49 C675.097,595.084 681.591,594.64 684.113,585.125 C685.945,578.221 685.535,567.752 690.947,562.182 C693.267,566.055 704.88,571.637 698.933,576.996 C695.691,579.914 691.205,570.885 687.937,573.174 C682.156,577.223 687.726,585.73 690.502,586.945 C694.64,588.762 693.675,599.289 698.933,597.373 C702.441,596.098 710.179,587.764 712.798,581.777 C714.957,576.832 718.537,567.574 718.054,562.316 C717.156,552.416 711.634,536.57 707.699,529.189 C702.597,519.627 704.437,512.35 700.683,506.878 C696.029,500.088 685.384,499.721 685.384,507.517 C685.384,511.91 687.615,519.287 682.199,532.037 C677.677,542.668 674.853,558.072 673.638,566.764" fill="#F4C4B1"/>
    <g>
      <path d="M673.638,566.764 C672.814,572.687 672.908,577.906 673.748,584.49 C675.097,595.084 681.591,594.64 684.113,585.125 C685.945,578.221 685.535,567.752 690.947,562.182 C693.267,566.055 704.88,571.637 698.933,576.996 C695.691,579.914 691.205,570.885 687.937,573.174 C682.156,577.223 687.726,585.73 690.502,586.945 C694.64,588.762 693.675,599.289 698.933,597.373 C702.441,596.098 710.179,587.764 712.798,581.777 C714.957,576.832 718.537,567.574 718.054,562.316 C717.156,552.416 711.634,536.57 707.699,529.189 C702.597,519.627 704.437,512.35 700.683,506.878 C696.029,500.088 685.384,499.721 685.384,507.517 C685.384,511.91 687.615,519.287 682.199,532.037 C677.677,542.668 674.853,558.072 673.638,566.764" fill="#F4C4B1"/>
      <path d="M673.638,566.764 C672.814,572.687 672.908,577.906 673.748,584.49 C675.097,595.084 681.591,594.64 684.113,585.125 C685.945,578.221 685.535,567.752 690.947,562.182 C693.267,566.055 704.88,571.637 698.933,576.996 C695.691,579.914 691.205,570.885 687.937,573.174 C682.156,577.223 687.726,585.73 690.502,586.945 C694.64,588.762 693.675,599.289 698.933,597.373 C702.441,596.098 710.179,587.764 712.798,581.777 C714.957,576.832 718.537,567.574 718.054,562.316 C717.156,552.416 711.634,536.57 707.699,529.189 C702.597,519.627 704.437,512.35 700.683,506.878 C696.029,500.088 685.384,499.721 685.384,507.517 C685.384,511.91 687.615,519.287 682.199,532.037 C677.677,542.668 674.853,558.072 673.638,566.764 z M673.638,566.764 C672.814,572.687 672.908,577.906 673.748,584.49 C675.097,595.084 681.591,594.64 684.113,585.125 C685.945,578.221 685.535,567.752 690.947,562.182 C693.267,566.055 704.88,571.637 698.933,576.996 C695.691,579.914 691.205,570.885 687.937,573.174 C682.156,577.223 687.726,585.73 690.502,586.945 C694.64,588.762 693.675,599.289 698.933,597.373 C702.441,596.098 710.179,587.764 712.798,581.777 C714.957,576.832 718.537,567.574 718.054,562.316 C717.156,552.416 711.634,536.57 707.699,529.189 C702.597,519.627 704.437,512.35 700.683,506.878 C696.029,500.088 685.384,499.721 685.384,507.517 C685.384,511.91 687.615,519.287 682.199,532.037 C677.677,542.668 674.853,558.072 673.638,566.764 z" fill-opacity="0" stroke="#1A1919" stroke-width="2.823" stroke-linecap="round" stroke-linejoin="round"/>
    </g>
    <path d="M692.236,563.133 C696.064,570.783 692.91,578.529 690.804,583.211 C683.63,589.904 677.418,594.687 680.765,599.943 C685.388,602.494 693.244,598.728 697.021,592.773 C699.636,588.642 703.134,585.783 704.507,580.82 C705.888,575.869 710.085,568.949 710.085,564.707" fill="#F4C4B1"/>
    <path d="M692.236,563.133 C696.064,570.783 692.91,578.529 690.804,583.211 C683.63,589.904 677.418,594.687 680.765,599.943 C685.388,602.494 693.244,598.728 697.021,592.773 C699.636,588.642 703.134,585.783 704.507,580.82 C705.888,575.869 710.085,568.949 710.085,564.707" fill-opacity="0" stroke="#1A1919" stroke-width="2.823" stroke-linecap="round" stroke-linejoin="round"/>
    <path d="M677.101,526 C687.777,532.037 705.308,530.443 711.521,526 C712.304,511.032 711.218,476.674 707.699,462.254 C696.982,455.286 677.101,457.155 677.101,457.155 C677.101,457.155 680.007,516.396 677.101,526" fill="#FFFFFE"/>
    <path d="M677.101,526 C687.777,532.037 705.308,530.443 711.521,526 C712.304,511.032 711.218,476.674 707.699,462.254 C696.982,455.286 677.101,457.155 677.101,457.155 C677.101,457.155 680.007,516.396 677.101,526 z" fill-opacity="0" stroke="#1A1919" stroke-width="2.823" stroke-linecap="round" stroke-linejoin="round"/>
    <g>
      <path d="M717.58,515.805 C711.681,518.49 687.619,520.266 673.277,518.353 C676.097,499.061 671.363,419.589 671.363,402.335 C672,381.298 671.062,327.28 668.888,310.827 C666.947,296.143 667.041,237.869 677.736,241.698 C691.283,246.546 706.673,264.666 710.374,292.662 C712.423,308.255 717.517,359.129 717.58,391.503 C717.597,403.231 720.443,492.857 717.58,515.805" fill="#F5C9C6"/>
      <path d="M717.58,515.805 C711.681,518.49 687.619,520.266 673.277,518.353 C676.097,499.061 671.363,419.589 671.363,402.335 C672,381.298 671.062,327.28 668.888,310.827 C666.947,296.143 667.041,237.869 677.736,241.698 C691.283,246.546 706.673,264.666 710.374,292.662 C712.423,308.255 717.517,359.129 717.58,391.503 C717.597,403.231 720.443,492.857 717.58,515.805 z M671.363,405.522 C675.187,395.327 680.525,388.234 687.294,380.661" fill-opacity="0" stroke="#1A1919" stroke-width="2.823" stroke-linecap="round" stroke-linejoin="round"/>
    </g>
    <path d="M562.418,133.949 C567.455,134.235 566.964,142.607 562.418,143.111 C557.869,143.617 555.279,133.545 562.418,133.949" fill="#1A1919"/>
    <path d="M608.441,134.078 C612.996,134.078 612.988,143.293 607.427,142.73 C602.371,142.226 603.285,134.078 608.441,134.078" fill="#1A1919"/>
  </g>
</svg>
